# This file uses centimeters as units for non-parametric coordinates.

mtllib PalmTree.mtl
g default
v -0.575699 15.537109 2.136242
v 0.212701 16.209534 2.028641
v 0.212701 15.796539 -0.551559
v -0.575699 15.124084 -0.443911
v 1.001150 15.537109 2.136242
v 1.001150 15.124084 -0.443911
v 0.212701 14.088989 -1.907909
v -0.575699 13.416595 -1.800308
v 1.001150 13.416595 -1.800308
v 0.137351 5.327797 0.617790
v 0.514452 5.250000 0.987190
v 0.645102 -0.102604 0.120491
v 0.437752 -0.102604 -0.310109
v -0.028198 -0.102604 -0.416460
v -0.240098 5.260048 0.988791
v -0.401849 -0.102604 -0.118460
v -0.401849 -0.102604 0.359441
v 0.137001 5.182297 1.358191
v -0.028198 -0.102604 0.657440
v 0.437752 -0.102604 0.551091
v 0.278151 9.290451 1.033091
v 0.631551 9.256989 1.383841
v -0.074149 9.267349 1.385792
v 0.279251 9.233948 1.736591
v 0.302951 15.737396 1.559391
v 0.527301 15.724335 1.782639
v 0.079352 15.722443 1.783291
v 0.303702 15.709412 2.006538
v -0.551448 15.605408 1.217739
v 0.075601 16.242096 1.931892
v 2.260902 15.315399 0.839340
v 1.633852 14.678650 0.125191
v 0.270651 15.605408 2.862041
v 2.455902 14.678650 1.769489
v 3.327049 13.368652 -0.029559
v 2.699951 12.731903 -0.743711
v 3.522049 12.731903 0.900640
v 1.112652 15.605408 1.413490
v 0.203502 16.242096 1.710342
v 0.350702 15.315399 4.149094
v 1.259851 14.678650 3.852242
v -0.734799 15.605408 1.524990
v -0.587599 14.678650 3.963737
v 0.474551 13.368652 6.201591
v 1.383751 12.731903 5.904793
v -0.463699 12.731903 6.016289
v 0.658951 15.500244 2.394939
v 0.371701 16.210602 1.819038
v -2.107098 15.780853 2.525341
v -1.819847 15.070496 3.101242
v 0.277152 15.579895 1.103441
v -2.201649 15.150146 1.809792
v -3.427498 13.029099 3.044342
v -3.140247 12.318741 3.620293
v -3.522049 12.398392 2.328789
v 0.164201 15.605408 2.719791
v 0.344602 16.242096 1.941441
v -1.757401 14.999695 0.696141
v -1.937798 14.678650 1.474491
v 0.940552 15.605408 1.409340
v -1.161398 14.678650 0.163991
v -2.966450 13.080093 -0.271210
v -2.914047 12.443390 0.555191
v -2.416050 12.443390 -0.602359
v 0.165801 15.597137 0.835940
v 0.102951 16.275452 1.790340
v 1.925003 14.807556 2.953640
v 1.987850 14.129242 1.999241
v -0.709999 15.840454 2.514740
v 1.112051 14.372498 3.677994
v 3.146301 12.447845 3.932693
v 3.209152 11.769547 2.978291
v 2.333351 12.012848 4.657043
v -0.079449 14.967896 2.456089
v 0.384702 15.566803 1.981941
v -0.629949 14.869690 0.108290
v -1.094049 14.270782 0.582440
v 1.093250 15.057800 1.787590
v 0.078651 14.360687 -0.086060
v -0.990650 13.243240 -0.743210
v -1.454800 12.644394 -0.269060
v -0.282098 12.734253 -0.937559
v 1.015751 14.967896 2.037338
v 0.411401 15.566803 1.763439
v -1.002048 14.869690 3.357841
v -0.397699 14.270782 3.631737
v -0.013649 15.057800 1.164089
v -1.427097 14.360687 2.758541
v -1.678749 13.243240 3.988144
v -1.074398 12.644394 4.262039
v -2.103748 12.734253 3.388794
vt 0.007783 0.000000
vt 0.252441 0.000000
vt 0.252441 0.500000
vt 0.007783 0.500000
vt 0.497100 0.000000
vt 0.497100 0.500000
vt 0.252441 1.000000
vt 0.007783 1.000000
vt 0.497100 1.000000
vt 0.770771 0.927141
vt 0.705470 0.926168
vt 0.731096 0.046459
vt 0.799477 0.031423
vt 0.866844 0.032282
vt 0.833965 0.938180
vt 0.935612 0.051728
vt 0.993580 0.081118
vt 0.641021 0.930112
vt 0.580211 0.931236
vt 0.523823 0.060535
vt 0.596619 0.068946
vt 0.658069 0.064461
vt 0.658093 0.063251
vt 0.549446 0.032246
vt 0.646817 0.028721
vt 0.669573 0.980695
vt 0.604659 0.988236
vt 0.744165 0.024639
vt 0.734872 0.983275
vt 0.841577 0.026754
vt 0.799887 0.989878
vt 0.938574 0.035978
vt 0.865231 0.990749
vt 0.740433 0.002476
vt 0.849703 0.005335
vt 0.812357 0.998324
vt 0.718832 0.996823
vt 0.959117 0.007337
vt 0.905862 1.000000
vt 0.521503 0.000000
vt 0.631029 0.000545
vt 0.625328 0.995137
vt 0.531794 0.993728
vt 0.007783 0.000000
vt 0.252441 0.000000
vt 0.252441 0.500000
vt 0.007783 0.500000
vt 0.497100 0.000000
vt 0.497100 0.500000
vt 0.252441 1.000000
vt 0.007783 1.000000
vt 0.497100 1.000000
vt 0.007783 0.000000
vt 0.252441 0.000000
vt 0.252441 0.500000
vt 0.007783 0.500000
vt 0.497100 0.000000
vt 0.497100 0.500000
vt 0.252441 1.000000
vt 0.007783 1.000000
vt 0.497100 1.000000
vt 0.007783 0.000000
vt 0.252441 0.000000
vt 0.252441 0.500000
vt 0.007783 0.500000
vt 0.497100 0.000000
vt 0.497100 0.500000
vt 0.252441 1.000000
vt 0.007783 1.000000
vt 0.497100 1.000000
vt 0.007783 0.000000
vt 0.252441 0.000000
vt 0.252441 0.500000
vt 0.007783 0.500000
vt 0.497100 0.000000
vt 0.497100 0.500000
vt 0.252441 1.000000
vt 0.007783 1.000000
vt 0.497100 1.000000
vt 0.007783 0.000000
vt 0.252441 0.000000
vt 0.252441 0.500000
vt 0.007783 0.500000
vt 0.497100 0.000000
vt 0.497100 0.500000
vt 0.252441 1.000000
vt 0.007783 1.000000
vt 0.497100 1.000000
vt 0.007783 0.000000
vt 0.252441 0.000000
vt 0.252441 0.500000
vt 0.007783 0.500000
vt 0.497100 0.000000
vt 0.497100 0.500000
vt 0.252441 1.000000
vt 0.007783 1.000000
vt 0.497100 1.000000
vt 0.007783 0.000000
vt 0.252441 0.000000
vt 0.252441 0.500000
vt 0.007783 0.500000
vt 0.497100 0.000000
vt 0.497100 0.500000
vt 0.252441 1.000000
vt 0.007783 1.000000
vt 0.497100 1.000000
vn -0.410231 0.900519 -0.144140
vn 0.148284 0.976515 -0.156304
vn -0.016312 0.856386 -0.516078
vn -0.365333 0.730068 -0.577522
vn 0.410231 0.900519 -0.144140
vn 0.399248 0.840083 -0.367234
vn -0.109975 0.618216 -0.778277
vn -0.315036 0.590317 -0.743155
vn 0.315036 0.590317 -0.743155
vn 0.081324 0.166641 -0.982658
vn 0.998151 0.005042 -0.060581
vn 0.960818 0.078587 -0.265805
vn 0.616385 0.165634 -0.769828
vn -0.406855 0.187172 -0.894112
vn -0.998098 0.061214 -0.007323
vn -0.896561 0.115347 -0.427638
vn -0.841993 -0.041773 0.537869
vn 0.058447 -0.107377 0.992499
vn -0.222197 -0.121331 0.967423
vn 0.652671 -0.089633 0.752321
vn -0.001812 0.087713 -0.996144
vn 0.999918 -0.012581 -0.002507
vn -0.999253 0.038381 0.004502
vn 0.002161 -0.062126 0.998066
vn 0.314684 0.076024 -0.946147
vn 0.949091 -0.004128 0.314975
vn -0.948980 0.041809 -0.312553
vn -0.314403 -0.038337 0.948515
vn -0.011318 0.751278 -0.659889
vn 0.415180 0.907727 0.060480
vn 0.553828 0.773190 -0.308952
vn 0.330260 0.676245 -0.658499
vn 0.488623 0.828037 0.274959
vn 0.648966 0.738264 0.183873
vn 0.639946 0.583740 -0.499717
vn 0.445554 0.576170 -0.685208
vn 0.883428 0.468184 -0.018940
vn 0.608845 0.753061 0.249414
vn -0.217043 0.908079 0.358168
vn 0.038583 0.845652 0.532339
vn 0.484634 0.720602 0.495845
vn -0.447155 0.826827 0.341189
vn -0.437445 0.779452 0.448437
vn 0.200902 0.716792 0.667719
vn 0.474443 0.652820 0.590534
vn -0.399970 0.652820 0.643312
vn 0.101501 0.650954 0.752300
vn -0.224363 0.952020 -0.208135
vn -0.576410 0.765186 0.286778
vn -0.540129 0.664936 0.515869
vn -0.233692 0.940113 -0.248146
vn -0.518974 0.841342 -0.151029
vn -0.804474 0.470050 0.363144
vn -0.723209 0.481119 0.495472
vn -0.907099 0.414168 0.075073
vn -0.571622 0.757156 0.316171
vn -0.259663 0.889444 -0.376118
vn -0.523846 0.783304 -0.334695
vn -0.751659 0.655374 -0.074123
vn -0.076720 0.857540 -0.508665
vn -0.317821 0.779742 -0.539437
vn -0.743383 0.567812 -0.353513
vn -0.930520 0.363652 -0.043483
vn -0.441219 0.579590 -0.685129
vn 0.714774 0.591419 -0.373257
vn 0.429651 0.824723 0.367740
vn 0.681371 0.688471 0.248478
vn 0.846181 0.507969 -0.161077
vn 0.264249 0.778812 0.568879
vn 0.343782 0.707969 0.616924
vn 0.841986 0.509446 0.177552
vn 0.900141 0.423392 -0.102396
vn 0.488136 0.537831 0.687358
vn -0.724944 0.674057 0.141787
vn 0.038817 0.929477 -0.366833
vn -0.388403 0.755805 -0.527164
vn -0.692445 0.604304 -0.394128
vn 0.164836 0.891908 -0.421104
vn 0.056400 0.796561 -0.601921
vn -0.552341 0.479502 -0.681907
vn -0.709472 0.443908 -0.547353
vn -0.163301 0.485772 -0.858696
vn 0.381242 0.674062 0.632688
vn -0.357976 0.929476 0.089038
vn -0.362481 0.755806 0.545312
vn -0.133440 0.604304 0.785500
vn -0.452087 0.891908 -0.010817
vn -0.584893 0.796561 0.152937
vn -0.451786 0.479502 0.752308
vn -0.271593 0.443908 0.853922
vn -0.751007 0.485772 0.447229
s 1
g palm1
usemtl lambert3SG
f 1/1/1 2/2/2 3/3/3
f 3/3/3 4/4/4 1/1/1
f 2/2/2 5/5/5 6/6/6
f 6/6/6 3/3/3 2/2/2
f 4/4/4 3/3/3 7/7/7
f 7/7/7 8/8/8 4/4/4
f 3/3/3 6/6/6 9/9/9
f 9/9/9 7/7/7 3/3/3
s 2
f 10/10/10 11/11/11 12/12/12
f 10/10/10 12/12/12 13/13/13
f 10/10/10 13/13/13 14/14/14
f 15/15/15 10/10/10 14/14/14
f 15/15/15 14/14/14 16/16/16
f 15/15/15 16/16/16 17/17/17
f 18/18/18 15/19/15 17/20/17
f 18/18/18 17/20/17 19/21/19
f 18/18/18 19/21/19 20/22/20
f 20/23/20 12/12/12 11/11/11
f 11/11/11 18/18/18 20/23/20
f 11/24/11 10/25/10 21/26/21
f 21/26/21 22/27/22 11/24/11
f 10/25/10 15/28/15 23/29/23
f 23/29/23 21/26/21 10/25/10
f 15/28/15 18/30/18 24/31/24
f 24/31/24 23/29/23 15/28/15
f 18/30/18 11/32/11 22/33/22
f 22/33/22 24/31/24 18/30/18
f 22/34/22 21/35/21 25/36/25
f 25/36/25 26/37/26 22/34/22
f 21/35/21 23/38/23 27/39/27
f 27/39/27 25/36/25 21/35/21
f 23/40/23 24/41/24 28/42/28
f 28/42/28 27/43/27 23/40/23
f 24/41/24 22/34/22 26/37/26
f 26/37/26 28/42/28 24/41/24
s 3
f 29/44/29 30/45/30 31/46/31
f 31/46/31 32/47/32 29/44/29
f 30/45/30 33/48/33 34/49/34
f 34/49/34 31/46/31 30/45/30
f 32/47/32 31/46/31 35/50/35
f 35/50/35 36/51/36 32/47/32
f 31/46/31 34/49/34 37/52/37
f 37/52/37 35/50/35 31/46/31
s 4
f 38/53/38 39/54/39 40/55/40
f 40/55/40 41/56/41 38/53/38
f 39/54/39 42/57/42 43/58/43
f 43/58/43 40/55/40 39/54/39
f 41/56/41 40/55/40 44/59/44
f 44/59/44 45/60/45 41/56/41
f 40/55/40 43/58/43 46/61/46
f 46/61/46 44/59/44 40/55/40
s 5
f 47/62/47 48/63/48 49/64/49
f 49/64/49 50/65/50 47/62/47
f 48/63/48 51/66/51 52/67/52
f 52/67/52 49/64/49 48/63/48
f 50/65/50 49/64/49 53/68/53
f 53/68/53 54/69/54 50/65/50
f 49/64/49 52/67/52 55/70/55
f 55/70/55 53/68/53 49/64/49
s 6
f 56/71/56 57/72/57 58/73/58
f 58/73/58 59/74/59 56/71/56
f 57/72/57 60/75/60 61/76/61
f 61/76/61 58/73/58 57/72/57
f 59/74/59 58/73/58 62/77/62
f 62/77/62 63/78/63 59/74/59
f 58/73/58 61/76/61 64/79/64
f 64/79/64 62/77/62 58/73/58
s 7
f 65/80/65 66/81/66 67/82/67
f 67/82/67 68/83/68 65/80/65
f 66/81/66 69/84/69 70/85/70
f 70/85/70 67/82/67 66/81/66
f 68/83/68 67/82/67 71/86/71
f 71/86/71 72/87/72 68/83/68
f 67/82/67 70/85/70 73/88/73
f 73/88/73 71/86/71 67/82/67
s 8
f 74/89/74 75/90/75 76/91/76
f 76/91/76 77/92/77 74/89/74
f 75/90/75 78/93/78 79/94/79
f 79/94/79 76/91/76 75/90/75
f 77/92/77 76/91/76 80/95/80
f 80/95/80 81/96/81 77/92/77
f 76/91/76 79/94/79 82/97/82
f 82/97/82 80/95/80 76/91/76
s 9
f 83/98/83 84/99/84 85/100/85
f 85/100/85 86/101/86 83/98/83
f 84/99/84 87/102/87 88/103/88
f 88/103/88 85/100/85 84/99/84
f 86/101/86 85/100/85 89/104/89
f 89/104/89 90/105/90 86/101/86
f 85/100/85 88/103/88 91/106/91
f 91/106/91 89/104/89 85/100/85
